<svg width="650" height="115" viewBox="0 0 650 115" fill="none" xmlns="http://www.w3.org/2000/svg">
<rect width="650" height="115" fill="#edecec"/>
<path d="M42.8 79.64C39.344 79.64 36.1013 79 33.072 77.72C30.0853 76.3973 27.4613 74.584 25.2 72.28C22.9813 69.9333 21.232 67.2027 19.952 64.088C18.7147 60.9733 18.096 57.6027 18.096 53.976C18.096 50.392 18.7147 47.064 19.952 43.992C21.232 40.8773 22.9813 38.168 25.2 35.864C27.4613 33.5173 30.0853 31.6827 33.072 30.36C36.0587 29.0373 39.3013 28.376 42.8 28.376C46.0853 28.376 48.9013 28.8027 51.248 29.656C53.6373 30.5093 56.0267 31.9173 58.416 33.88C58.7573 34.136 59.0133 34.4133 59.184 34.712C59.3973 34.968 59.5253 35.2453 59.568 35.544C59.6533 35.8 59.696 36.12 59.696 36.504C59.696 37.3147 59.3973 37.9973 58.8 38.552C58.2453 39.064 57.5627 39.3627 56.752 39.448C55.9413 39.4907 55.152 39.2133 54.384 38.616C52.8053 37.2507 51.1627 36.2053 49.456 35.48C47.792 34.7547 45.5733 34.392 42.8 34.392C40.2827 34.392 37.9147 34.904 35.696 35.928C33.4773 36.952 31.5147 38.36 29.808 40.152C28.144 41.944 26.8427 44.0347 25.904 46.424C24.9653 48.7707 24.496 51.288 24.496 53.976C24.496 56.7067 24.9653 59.2667 25.904 61.656C26.8427 64.0027 28.144 66.072 29.808 67.864C31.5147 69.656 33.4773 71.064 35.696 72.088C37.9147 73.0693 40.2827 73.56 42.8 73.56C44.976 73.56 47.024 73.1973 48.944 72.472C50.9067 71.704 52.784 70.6587 54.576 69.336C55.344 68.7813 56.0907 68.5467 56.816 68.632C57.584 68.6747 58.224 68.9733 58.736 69.528C59.248 70.04 59.504 70.7653 59.504 71.704C59.504 72.1307 59.4187 72.5573 59.248 72.984C59.0773 73.368 58.8213 73.7307 58.48 74.072C56.176 75.9067 53.7013 77.2933 51.056 78.232C48.4533 79.1707 45.7013 79.64 42.8 79.64ZM82.63 44.056C83.27 44.056 83.846 44.2267 84.358 44.568C84.87 44.9093 85.2753 45.4427 85.574 46.168L98.758 74.776C99.142 75.6293 99.1847 76.3973 98.886 77.08C98.5873 77.72 98.0753 78.2107 97.35 78.552C96.4113 78.9787 95.6007 79.0853 94.918 78.872C94.2353 78.6587 93.6593 78.1253 93.19 77.272L81.158 49.944H84.422L72.006 77.272C71.622 78.0827 71.046 78.616 70.278 78.872C69.5527 79.0853 68.742 78.9787 67.846 78.552C67.0353 78.168 66.4593 77.656 66.118 77.016C65.8193 76.376 65.8833 75.6293 66.31 74.776L79.558 46.168C80.198 44.76 81.222 44.056 82.63 44.056ZM122.945 79.256C119.489 79.256 116.438 78.5093 113.793 77.016C111.147 75.48 109.057 73.3893 107.521 70.744C106.027 68.056 105.281 64.984 105.281 61.528C105.281 58.0293 106.027 54.9573 107.521 52.312C109.057 49.624 111.147 47.5333 113.793 46.04C116.438 44.504 119.489 43.736 122.945 43.736C126.358 43.736 129.387 44.504 132.033 46.04C134.678 47.5333 136.747 49.624 138.241 52.312C139.777 54.9573 140.545 58.0293 140.545 61.528C140.545 64.984 139.798 68.056 138.305 70.744C136.811 73.3893 134.742 75.48 132.097 77.016C129.451 78.5093 126.401 79.256 122.945 79.256ZM122.945 73.496C125.163 73.496 127.126 72.984 128.833 71.96C130.539 70.936 131.862 69.528 132.801 67.736C133.782 65.944 134.273 63.8747 134.273 61.528C134.273 59.1813 133.782 57.112 132.801 55.32C131.862 53.4853 130.539 52.056 128.833 51.032C127.126 50.008 125.163 49.496 122.945 49.496C120.726 49.496 118.763 50.008 117.057 51.032C115.35 52.056 114.006 53.4853 113.025 55.32C112.043 57.112 111.553 59.1813 111.553 61.528C111.553 63.8747 112.043 65.944 113.025 67.736C114.006 69.528 115.35 70.936 117.057 71.96C118.763 72.984 120.726 73.496 122.945 73.496ZM153.524 79C152.585 79 151.796 78.7013 151.156 78.104C150.559 77.464 150.26 76.6747 150.26 75.736V47.192C150.345 46.2533 150.687 45.4853 151.284 44.888C151.881 44.2907 152.628 43.992 153.524 43.992C154.505 43.992 155.295 44.2907 155.892 44.888C156.489 45.4853 156.788 46.2747 156.788 47.256V58.264H169.204V59.544C171.551 59.544 173.62 59.9493 175.412 60.76C177.247 61.5707 178.676 62.7013 179.7 64.152C180.724 65.56 181.236 67.2027 181.236 69.08C181.236 71 180.724 72.7067 179.7 74.2C178.676 75.6933 177.247 76.8667 175.412 77.72C173.62 78.5733 171.551 79 169.204 79H153.524ZM156.788 72.92H169.204C170.911 72.92 172.297 72.5147 173.364 71.704C174.431 70.8507 174.964 69.7627 174.964 68.44C174.964 67.032 174.431 65.88 173.364 64.984C172.297 64.088 170.911 63.64 169.204 63.64H156.788V72.92ZM164.148 61.72V58.264H170.228C171.295 58.264 172.169 57.8587 172.852 57.048C173.535 56.1947 173.876 55.128 173.876 53.848C173.876 52.7387 173.471 51.8213 172.66 51.096C171.849 50.3707 170.825 50.008 169.588 50.008H153.588V43.992H169.588C171.593 43.992 173.364 44.3973 174.9 45.208C176.479 45.976 177.716 47.064 178.612 48.472C179.508 49.8373 179.956 51.416 179.956 53.208C179.956 55.6827 179.017 57.7307 177.14 59.352C175.305 60.9307 173.001 61.72 170.228 61.72H164.148ZM203.852 79.256C200.737 79.256 197.943 78.488 195.468 76.952C192.993 75.3733 191.031 73.2613 189.58 70.616C188.172 67.928 187.468 64.8987 187.468 61.528C187.468 58.1573 188.236 55.128 189.772 52.44C191.351 49.752 193.463 47.64 196.108 46.104C198.796 44.5253 201.804 43.736 205.132 43.736C208.46 43.736 211.447 44.5253 214.092 46.104C216.737 47.64 218.828 49.752 220.364 52.44C221.943 55.128 222.732 58.1573 222.732 61.528H220.236C220.236 64.8987 219.511 67.928 218.06 70.616C216.652 73.2613 214.711 75.3733 212.236 76.952C209.761 78.488 206.967 79.256 203.852 79.256ZM205.132 73.496C207.308 73.496 209.249 72.984 210.956 71.96C212.663 70.8933 214.007 69.464 214.988 67.672C215.969 65.8373 216.46 63.7893 216.46 61.528C216.46 59.224 215.969 57.176 214.988 55.384C214.007 53.5493 212.663 52.12 210.956 51.096C209.249 50.0293 207.308 49.496 205.132 49.496C202.999 49.496 201.057 50.0293 199.308 51.096C197.601 52.12 196.236 53.5493 195.212 55.384C194.231 57.176 193.74 59.224 193.74 61.528C193.74 63.7893 194.231 65.8373 195.212 67.672C196.236 69.464 197.601 70.8933 199.308 71.96C201.057 72.984 202.999 73.496 205.132 73.496ZM219.468 79.064C218.529 79.064 217.74 78.7653 217.1 78.168C216.503 77.528 216.204 76.7387 216.204 75.8V66.008L217.42 59.224L222.732 61.528V75.8C222.732 76.7387 222.412 77.528 221.772 78.168C221.175 78.7653 220.407 79.064 219.468 79.064ZM235.712 93.976C234.773 93.976 233.984 93.656 233.344 93.016C232.746 92.4187 232.448 91.6507 232.448 90.712V61.528C232.49 58.1573 233.28 55.128 234.816 52.44C236.352 49.752 238.442 47.64 241.088 46.104C243.733 44.5253 246.72 43.736 250.048 43.736C253.418 43.736 256.426 44.5253 259.072 46.104C261.717 47.64 263.808 49.752 265.344 52.44C266.922 55.128 267.712 58.1573 267.712 61.528C267.712 64.8987 266.986 67.928 265.536 70.616C264.128 73.2613 262.186 75.3733 259.712 76.952C257.237 78.488 254.442 79.256 251.328 79.256C248.81 79.256 246.485 78.744 244.352 77.72C242.261 76.6533 240.469 75.224 238.976 73.432V90.712C238.976 91.6507 238.677 92.4187 238.08 93.016C237.482 93.656 236.693 93.976 235.712 93.976ZM250.048 73.496C252.224 73.496 254.165 72.984 255.872 71.96C257.578 70.8933 258.922 69.464 259.904 67.672C260.928 65.8373 261.44 63.7893 261.44 61.528C261.44 59.224 260.928 57.176 259.904 55.384C258.922 53.5493 257.578 52.12 255.872 51.096C254.165 50.0293 252.224 49.496 250.048 49.496C247.914 49.496 245.973 50.0293 244.224 51.096C242.517 52.12 241.173 53.5493 240.192 55.384C239.21 57.176 238.72 59.224 238.72 61.528C238.72 63.7893 239.21 65.8373 240.192 67.672C241.173 69.464 242.517 70.8933 244.224 71.96C245.973 72.984 247.914 73.496 250.048 73.496ZM306.888 79C305.949 79 305.16 78.7013 304.52 78.104C303.922 77.464 303.624 76.6747 303.624 75.736V47.256C303.624 46.2747 303.922 45.4853 304.52 44.888C305.16 44.2907 305.949 43.992 306.888 43.992C307.869 43.992 308.637 44.2907 309.192 44.888C309.746 45.4853 310.024 46.2747 310.024 47.256V75.736C310.024 76.6747 309.746 77.464 309.192 78.104C308.637 78.7013 307.869 79 306.888 79ZM280.584 79C279.645 79 278.877 78.7013 278.28 78.104C277.725 77.464 277.448 76.6747 277.448 75.736V47.256C277.448 46.2747 277.725 45.4853 278.28 44.888C278.877 44.2907 279.645 43.992 280.584 43.992C281.565 43.992 282.354 44.2907 282.952 44.888C283.549 45.4853 283.848 46.2747 283.848 47.256V75.736C283.848 76.6747 283.549 77.464 282.952 78.104C282.354 78.7013 281.565 79 280.584 79ZM283.016 63.704V57.944H305.479V63.704H283.016ZM336.229 79.64C333.37 79.64 330.831 79.0427 328.613 77.848C326.394 76.6107 324.666 74.9253 323.429 72.792C322.191 70.6587 321.573 68.2267 321.573 65.496V47.192C321.658 46.2533 321.999 45.4853 322.597 44.888C323.194 44.2907 323.941 43.992 324.837 43.992C325.818 43.992 326.607 44.2907 327.205 44.888C327.802 45.4853 328.101 46.2747 328.101 47.256V54.424H336.869C339.557 54.424 341.925 54.8933 343.973 55.832C346.063 56.7707 347.685 58.136 348.837 59.928C350.031 61.72 350.629 63.9173 350.629 66.52C350.629 69.2933 350.01 71.6613 348.773 73.624C347.578 75.5867 345.893 77.08 343.717 78.104C341.541 79.128 339.045 79.64 336.229 79.64ZM336.229 73.56C338.618 73.56 340.559 72.984 342.053 71.832C343.589 70.6373 344.357 68.8667 344.357 66.52C344.357 64.2587 343.653 62.5947 342.245 61.528C340.837 60.4613 339.045 59.928 336.869 59.928H328.101V65.368C328.101 67.7573 328.847 69.72 330.341 71.256C331.877 72.792 333.839 73.56 336.229 73.56ZM359.461 79C358.522 79 357.733 78.7013 357.093 78.104C356.495 77.464 356.197 76.6747 356.197 75.736V47.256C356.197 46.2747 356.495 45.4853 357.093 44.888C357.733 44.2907 358.522 43.992 359.461 43.992C360.442 43.992 361.231 44.2907 361.829 44.888C362.426 45.4853 362.725 46.2747 362.725 47.256V75.736C362.725 76.6747 362.426 77.464 361.829 78.104C361.231 78.7013 360.442 79 359.461 79ZM388.98 79.32C386.036 79.32 383.391 78.7013 381.044 77.464C378.74 76.184 376.905 74.328 375.54 71.896C374.217 69.464 373.556 66.4773 373.556 62.936V47.192C373.556 46.2533 373.855 45.4853 374.452 44.888C375.092 44.248 375.881 43.928 376.82 43.928C377.759 43.928 378.527 44.248 379.124 44.888C379.764 45.4853 380.084 46.2533 380.084 47.192V62.936C380.084 65.3253 380.532 67.3093 381.428 68.888C382.324 70.424 383.54 71.576 385.076 72.344C386.612 73.0693 388.34 73.432 390.26 73.432C392.095 73.432 393.716 73.0693 395.124 72.344C396.575 71.6187 397.727 70.6373 398.58 69.4C399.433 68.1627 399.86 66.776 399.86 65.24H403.892C403.892 67.8853 403.231 70.2747 401.908 72.408C400.628 74.5413 398.857 76.2267 396.596 77.464C394.377 78.7013 391.839 79.32 388.98 79.32ZM403.124 79C402.185 79 401.396 78.7013 400.756 78.104C400.159 77.464 399.86 76.6747 399.86 75.736V47.192C399.86 46.2107 400.159 45.4213 400.756 44.824C401.396 44.2267 402.185 43.928 403.124 43.928C404.105 43.928 404.895 44.2267 405.492 44.824C406.089 45.4213 406.388 46.2107 406.388 47.192V75.736C406.388 76.6747 406.089 77.464 405.492 78.104C404.895 78.7013 404.105 79 403.124 79ZM390.324 39.384C388.148 39.384 386.185 39.0213 384.436 38.296C382.687 37.528 381.3 36.504 380.276 35.224C379.252 33.9013 378.74 32.4293 378.74 30.808C378.74 29.912 379.017 29.1653 379.572 28.568C380.127 27.9707 380.809 27.672 381.62 27.672C382.473 27.672 383.156 27.9707 383.668 28.568C384.223 29.1653 384.5 29.912 384.5 30.808C384.5 31.8747 385.055 32.792 386.164 33.56C387.273 34.2853 388.66 34.648 390.324 34.648C391.988 34.648 393.375 34.2853 394.484 33.56C395.593 32.792 396.148 31.8747 396.148 30.808C396.148 29.912 396.425 29.1653 396.98 28.568C397.535 27.9707 398.217 27.672 399.028 27.672C399.881 27.672 400.564 27.9707 401.076 28.568C401.631 29.1653 401.908 29.912 401.908 30.808C401.908 32.4293 401.396 33.9013 400.372 35.224C399.348 36.504 397.961 37.528 396.212 38.296C394.505 39.0213 392.543 39.384 390.324 39.384ZM433.181 79.64C430.834 79.64 428.466 79.3413 426.077 78.744C423.688 78.1467 421.554 77.2933 419.677 76.184C417.842 75.032 416.541 73.688 415.773 72.152C415.73 71.3413 415.688 70.5307 415.645 69.72C415.645 68.9093 415.986 68.2907 416.669 67.864C417.394 67.3947 418.12 67.2667 418.845 67.48C419.613 67.6507 420.274 68.0987 420.829 68.824C421.938 70.1893 423.581 71.3627 425.757 72.344C427.976 73.3253 430.408 73.816 433.053 73.816C435.314 73.816 437.298 73.4107 439.005 72.6C440.754 71.7893 442.12 70.6587 443.101 69.208C444.125 67.7147 444.637 66.0293 444.637 64.152C444.637 61.5493 443.741 59.4587 441.949 57.88C440.157 56.3013 437.832 55.512 434.973 55.512H430.749C429.938 55.512 429.277 55.2347 428.765 54.68C428.253 54.1253 427.997 53.4427 427.997 52.632C427.997 51.736 428.253 51.0107 428.765 50.456C429.277 49.9013 429.938 49.624 430.749 49.624H434.013C436.274 49.624 438.173 48.8987 439.709 47.448C441.245 45.9973 442.013 44.0773 442.013 41.688C442.013 39.128 441.117 37.2507 439.325 36.056C437.533 34.8187 435.229 34.2 432.413 34.2C430.322 34.2 428.36 34.584 426.525 35.352C424.733 36.12 423.154 37.3147 421.789 38.936C421.064 39.8747 420.317 40.4933 419.549 40.792C418.781 41.0907 417.992 40.9627 417.181 40.408C416.584 39.9813 416.178 39.384 415.965 38.616C415.752 37.8053 415.88 37.0587 416.349 36.376C417.97 34.072 420.104 32.1733 422.749 30.68C425.437 29.144 428.658 28.376 432.413 28.376C435.57 28.376 438.344 28.952 440.733 30.104C443.122 31.2133 445 32.728 446.365 34.648C447.73 36.5253 448.413 38.6587 448.413 41.048C448.413 42.968 447.986 44.696 447.133 46.232C446.322 47.7253 445.277 49.0053 443.997 50.072C442.76 51.096 441.458 51.8853 440.093 52.44C438.728 52.952 437.533 53.208 436.509 53.208V51.16C437.661 51.16 439.048 51.3947 440.669 51.864C442.29 52.2907 443.89 53.016 445.469 54.04C447.09 55.064 448.413 56.4507 449.437 58.2C450.504 59.9067 451.037 62.0187 451.037 64.536C451.037 67.352 450.248 69.912 448.669 72.216C447.133 74.4773 445.021 76.2907 442.333 77.656C439.645 78.9787 436.594 79.64 433.181 79.64ZM474.915 79.256C471.8 79.256 469.005 78.488 466.531 76.952C464.056 75.3733 462.093 73.2613 460.643 70.616C459.235 67.928 458.531 64.8987 458.531 61.528C458.531 58.1573 459.299 55.128 460.835 52.44C462.413 49.752 464.525 47.64 467.171 46.104C469.859 44.5253 472.867 43.736 476.195 43.736C479.523 43.736 482.509 44.5253 485.155 46.104C487.8 47.64 489.891 49.752 491.427 52.44C493.005 55.128 493.795 58.1573 493.795 61.528H491.299C491.299 64.8987 490.573 67.928 489.123 70.616C487.715 73.2613 485.773 75.3733 483.299 76.952C480.824 78.488 478.029 79.256 474.915 79.256ZM476.195 73.496C478.371 73.496 480.312 72.984 482.019 71.96C483.725 70.8933 485.069 69.464 486.051 67.672C487.032 65.8373 487.523 63.7893 487.523 61.528C487.523 59.224 487.032 57.176 486.051 55.384C485.069 53.5493 483.725 52.12 482.019 51.096C480.312 50.0293 478.371 49.496 476.195 49.496C474.061 49.496 472.12 50.0293 470.371 51.096C468.664 52.12 467.299 53.5493 466.275 55.384C465.293 57.176 464.803 59.224 464.803 61.528C464.803 63.7893 465.293 65.8373 466.275 67.672C467.299 69.464 468.664 70.8933 470.371 71.96C472.12 72.984 474.061 73.496 476.195 73.496ZM490.531 79.064C489.592 79.064 488.803 78.7653 488.163 78.168C487.565 77.528 487.267 76.7387 487.267 75.8V66.008L488.483 59.224L493.795 61.528V75.8C493.795 76.7387 493.475 77.528 492.835 78.168C492.237 78.7653 491.469 79.064 490.531 79.064ZM533.078 79.064C532.139 79.064 531.35 78.7653 530.71 78.168C530.113 77.528 529.814 76.7387 529.814 75.8V60.056C529.814 57.624 529.366 55.64 528.47 54.104C527.574 52.568 526.358 51.4373 524.822 50.712C523.329 49.944 521.601 49.56 519.638 49.56C517.846 49.56 516.225 49.9227 514.774 50.648C513.323 51.3733 512.171 52.3547 511.318 53.592C510.465 54.7867 510.038 56.1733 510.038 57.752H506.006C506.006 55.064 506.646 52.6747 507.926 50.584C509.249 48.4507 511.041 46.7653 513.302 45.528C515.563 44.2907 518.102 43.672 520.918 43.672C523.862 43.672 526.486 44.312 528.79 45.592C531.137 46.8293 532.971 48.664 534.294 51.096C535.659 53.528 536.342 56.5147 536.342 60.056V75.8C536.342 76.7387 536.022 77.528 535.382 78.168C534.785 78.7653 534.017 79.064 533.078 79.064ZM506.774 79.064C505.835 79.064 505.046 78.7653 504.406 78.168C503.809 77.528 503.51 76.7387 503.51 75.8V47.256C503.51 46.2747 503.809 45.4853 504.406 44.888C505.046 44.2907 505.835 43.992 506.774 43.992C507.755 43.992 508.545 44.2907 509.142 44.888C509.739 45.4853 510.038 46.2747 510.038 47.256V75.8C510.038 76.7387 509.739 77.528 509.142 78.168C508.545 78.7653 507.755 79.064 506.774 79.064ZM561.727 79.256C558.612 79.256 555.818 78.488 553.343 76.952C550.868 75.3733 548.906 73.2613 547.455 70.616C546.047 67.928 545.343 64.8987 545.343 61.528C545.343 58.1573 546.111 55.128 547.647 52.44C549.226 49.752 551.338 47.64 553.983 46.104C556.671 44.5253 559.679 43.736 563.007 43.736C566.335 43.736 569.322 44.5253 571.967 46.104C574.612 47.64 576.703 49.752 578.239 52.44C579.818 55.128 580.607 58.1573 580.607 61.528H578.111C578.111 64.8987 577.386 67.928 575.935 70.616C574.527 73.2613 572.586 75.3733 570.111 76.952C567.636 78.488 564.842 79.256 561.727 79.256ZM563.007 73.496C565.183 73.496 567.124 72.984 568.831 71.96C570.538 70.8933 571.882 69.464 572.863 67.672C573.844 65.8373 574.335 63.7893 574.335 61.528C574.335 59.224 573.844 57.176 572.863 55.384C571.882 53.5493 570.538 52.12 568.831 51.096C567.124 50.0293 565.183 49.496 563.007 49.496C560.874 49.496 558.932 50.0293 557.183 51.096C555.476 52.12 554.111 53.5493 553.087 55.384C552.106 57.176 551.615 59.224 551.615 61.528C551.615 63.7893 552.106 65.8373 553.087 67.672C554.111 69.464 555.476 70.8933 557.183 71.96C558.932 72.984 560.874 73.496 563.007 73.496ZM577.343 79.064C576.404 79.064 575.615 78.7653 574.975 78.168C574.378 77.528 574.079 76.7387 574.079 75.8V66.008L575.295 59.224L580.607 61.528V75.8C580.607 76.7387 580.287 77.528 579.647 78.168C579.05 78.7653 578.282 79.064 577.343 79.064ZM606.195 79.256C602.781 79.256 599.731 78.488 597.043 76.952C594.397 75.3733 592.307 73.2613 590.771 70.616C589.277 67.928 588.531 64.8987 588.531 61.528C588.531 58.072 589.277 55 590.771 52.312C592.264 49.624 594.312 47.5333 596.915 46.04C599.517 44.504 602.504 43.736 605.875 43.736C608.392 43.736 610.696 44.2267 612.787 45.208C614.877 46.1467 616.755 47.576 618.419 49.496C619.016 50.1787 619.229 50.8827 619.059 51.608C618.888 52.3333 618.419 52.9733 617.651 53.528C617.053 53.9547 616.392 54.104 615.667 53.976C614.941 53.8053 614.28 53.4213 613.683 52.824C611.592 50.6053 608.989 49.496 605.875 49.496C603.699 49.496 601.779 50.008 600.115 51.032C598.451 52.0133 597.149 53.4 596.211 55.192C595.272 56.984 594.803 59.096 594.803 61.528C594.803 63.832 595.272 65.88 596.211 67.672C597.192 69.464 598.536 70.8933 600.243 71.96C601.949 72.984 603.933 73.496 606.195 73.496C607.688 73.496 608.989 73.3253 610.099 72.984C611.251 72.6 612.296 72.024 613.235 71.256C613.917 70.7013 614.621 70.4027 615.347 70.36C616.072 70.2747 616.712 70.4667 617.267 70.936C617.992 71.5333 618.397 72.216 618.483 72.984C618.568 73.7093 618.312 74.3707 617.715 74.968C614.643 77.8267 610.803 79.256 606.195 79.256Z" fill="black"/>
<rect x="584" y="7" width="60" height="31.1956" rx="6" fill="#8987F5"/>
<path d="M610.832 28.8186C609.808 28.8186 608.901 28.6319 608.112 28.2586C607.323 27.8746 606.704 27.3466 606.256 26.6746C605.819 26.0026 605.6 25.2346 605.6 24.3706V16.8986C605.6 16.6532 605.68 16.4559 605.84 16.3066C606 16.1466 606.197 16.0666 606.432 16.0666C606.677 16.0666 606.875 16.1466 607.024 16.3066C607.184 16.4559 607.264 16.6532 607.264 16.8986V24.3706C607.264 24.9466 607.413 25.4586 607.712 25.9066C608.021 26.3439 608.443 26.6906 608.976 26.9466C609.52 27.1919 610.139 27.3146 610.832 27.3146C611.504 27.3146 612.096 27.1919 612.608 26.9466C613.131 26.6906 613.536 26.3439 613.824 25.9066C614.123 25.4586 614.272 24.9466 614.272 24.3706V16.8986C614.272 16.6532 614.352 16.4559 614.512 16.3066C614.672 16.1466 614.869 16.0666 615.104 16.0666C615.349 16.0666 615.547 16.1466 615.696 16.3066C615.845 16.4559 615.92 16.6532 615.92 16.8986V24.3706C615.92 25.2346 615.701 26.0026 615.264 26.6746C614.837 27.3466 614.24 27.8746 613.472 28.2586C612.704 28.6319 611.824 28.8186 610.832 28.8186ZM619.948 28.5626C619.713 28.5626 619.516 28.4826 619.356 28.3226C619.196 28.1626 619.116 27.9652 619.116 27.7306V16.8986C619.116 16.6532 619.196 16.4559 619.356 16.3066C619.516 16.1466 619.713 16.0666 619.948 16.0666H623.148C623.948 16.0666 624.657 16.2426 625.276 16.5946C625.894 16.9466 626.374 17.4372 626.716 18.0666C627.068 18.6852 627.244 19.3999 627.244 20.2106C627.244 20.9892 627.068 21.6826 626.716 22.2906C626.374 22.8986 625.894 23.3732 625.276 23.7146C624.657 24.0559 623.948 24.2266 623.148 24.2266H620.78V27.7306C620.78 27.9652 620.7 28.1626 620.54 28.3226C620.39 28.4826 620.193 28.5626 619.948 28.5626ZM620.78 22.6906H623.148C623.638 22.6906 624.07 22.5839 624.444 22.3706C624.817 22.1572 625.11 21.8639 625.324 21.4906C625.537 21.1172 625.644 20.6906 625.644 20.2106C625.644 19.6986 625.537 19.2506 625.324 18.8666C625.11 18.4719 624.817 18.1626 624.444 17.9386C624.07 17.7146 623.638 17.6026 623.148 17.6026H620.78V22.6906Z" fill="white"/>
</svg>
